<svg class="icon" style="width: 1em;height: 1em;vertical-align: middle;fill: currentColor;overflow: hidden;" viewBox="0 0 1024 1024" version="1.1" xmlns="http://www.w3.org/2000/svg"><path d="M715.1 165.2l143.2 143.2 0.3 0.7c-60.3 27.7-107.3 14.5-150.2 7.7-0.3 0-0.6-0.1-0.9-0.1-0.1-0.3-0.1-0.6-0.1-0.9-6.9-43.2-20.1-90.1 7.7-150.6zM274.3 715.4c10.7 0.8 21.6 1.5 32.5 1.9 0.4 10.9 1 21.8 1.9 32.5 3.5 45.4 3.3 80.5 0.9 107.7l-1.9-0.5L166 715.4l-0.1-0.8c27.3-2.6 62.7-2.8 108.4 0.8z" fill="#FFFF27" /><path d="M62.6 768.3c-0.4-1.4-3.2-14.4 7-28.8 14.3-20.1 46.3-32.6 95.2-37 30.3-2.8 67.4-2.5 110.4 0.8 11.1 0.8 21.8 1.5 32 1.8 79.9 3 153.1-6.5 211.5-27.4 86.6-31.1 143.3-86.9 168.6-166 17.1-53.6 19.9-118.6 8.1-193.2-0.1-0.3-0.1-0.7-0.2-1.1-0.8-4.9-1.6-9.8-2.5-15-7-40.1-14.9-85.6 11.3-142.4 14.3-31.1 37.1-62 69.6-94.5 4.8-4.7 12.4-4.7 17.2 0 4.7 4.7 4.7 12.5 0 17.2-30.5 30.5-51.7 59.1-64.7 87.5-23 50-16.1 89.7-9.4 128.1 0.9 5.1 1.8 10.3 2.6 15.4v0.1c0 0.2 0.1 0.4 0.1 0.5v0.2c12.3 78.4 9.3 147.2-9 204.5-27.6 86.7-89.4 147.7-183.5 181.5-62.2 22.3-136.4 32-220.6 28.8-10.5-0.4-21.6-1-32.9-1.9-41.6-3.2-77.4-3.5-106.3-0.8-53 4.9-71 18.4-76.9 26-4.4 5.7-3.8 10-3.8 10.2 0-0.3-0.1-0.5-0.1-0.5l-23.7 6z" fill="#41B3F9" /><path d="M261.8 962c-3.3 0-5.6-0.5-6.1-0.6l5.9-23.6s-0.2-0.1-0.5-0.1c0.2 0 4.6 0.6 10.2-3.8 7.7-6 21.2-24 26-77.5 2.6-28.8 2.3-64.4-0.9-105.7-0.8-11-1.5-22.1-1.9-33-3.2-84.2 6.5-158.4 28.8-220.6 25.9-72.3 68.4-125.9 126.2-159.3 66.9-38.6 154.3-49.8 259.7-33.2l0.7 0.1h0.2c5.1 0.8 10.3 1.7 15.4 2.6 38.3 6.7 78 13.6 127.9-9.3 28.5-13.1 57.2-34.3 87.7-64.8 4.8-4.7 12.4-4.8 17.2 0 4.7 4.7 4.7 12.5 0 17.2-32.6 32.6-63.7 55.5-94.8 69.7-56.7 26-102.1 18.1-142.2 11.2-5.2-0.9-10.1-1.8-15-2.5l-0.7-0.1h-0.2c-185.9-29.2-306.7 30.2-359.2 176.7-21 58.5-30.4 131.6-27.4 211.5 0.4 10.6 1 21.3 1.8 32 3.3 42.7 3.6 79.6 0.9 109.8-4.4 49.2-16.9 81.5-37.1 95.8-8.7 6.2-17.1 7.5-22.6 7.5zM182.7 894.1c-3.1 0-6.2-1.2-8.6-3.6l-50-50c-4.7-4.7-4.7-12.5 0-17.2 4.7-4.7 12.5-4.7 17.2 0l50 50c4.7 4.7 4.7 12.5 0 17.2-2.4 2.4-5.5 3.6-8.6 3.6z" fill="#41B3F9" /><path d="M307.6 869.1c-3.1 0-6.2-1.2-8.6-3.6L157.4 724c-4.7-4.7-4.7-12.5 0-17.2 4.7-4.7 12.5-4.7 17.2 0l141.6 141.6c4.7 4.7 4.7 12.5 0 17.2-2.4 2.3-5.5 3.5-8.6 3.5zM886.3 198.7c-3.1 0-6.2-1.2-8.6-3.6l-50-50c-4.7-4.7-4.7-12.5 0-17.2 4.8-4.7 12.4-4.7 17.2 0l50 50c4.7 4.7 4.7 12.5 0 17.2-2.3 2.5-5.4 3.6-8.6 3.6zM858.3 320.5c-3.1 0-6.2-1.2-8.6-3.6L706.5 173.8c-4.7-4.7-4.7-12.5 0-17.2 4.8-4.7 12.5-4.7 17.2 0l143.2 143.2c4.7 4.7 4.7 12.5 0 17.2-2.4 2.4-5.5 3.5-8.6 3.5zM522.8 701.3c-3.1 0-6.2-1.2-8.6-3.6l-188-188c-4.7-4.7-4.7-12.5 0-17.2 4.7-4.7 12.5-4.7 17.2 0l188 188c4.7 4.7 4.7 12.5 0 17.2-2.3 2.4-5.4 3.6-8.6 3.6zM628.2 631.8c-3.1 0-6.2-1.2-8.6-3.6L394.8 403.4c-4.7-4.7-4.7-12.5 0-17.2 4.7-4.7 12.5-4.7 17.2 0L636.8 611c4.7 4.7 4.7 12.5 0 17.2-2.4 2.4-5.5 3.6-8.6 3.6zM698.9 527.6c-3.1 0-6.2-1.2-8.5-3.5L503.5 337.2c-4.7-4.7-4.7-12.5 0-17.2s12.5-4.7 17.2 0l186.8 186.8c4.7 4.7 4.8 12.5 0 17.2-2.3 2.4-5.5 3.6-8.6 3.6z" fill="#41B3F9" /></svg>